<svg width="500" height="500" viewBox="0 0 500 500" fill="none" xmlns="http://www.w3.org/2000/svg">
<g clip-path="url(#clip0_1_2)">
<circle cx="250" cy="250" r="250" fill="black"/>
<path d="M249.295 398.977C229.788 398.977 212.553 395.521 197.591 388.608C182.723 381.6 171.123 371.989 162.79 359.773C154.456 347.462 150.337 333.447 150.432 317.727C150.337 305.417 152.752 294.053 157.676 283.636C162.6 273.125 169.324 264.366 177.847 257.358C186.464 250.256 196.076 245.758 206.682 243.864V242.159C192.761 238.561 181.682 230.748 173.443 218.722C165.205 206.6 161.133 192.822 161.227 177.386C161.133 162.614 164.873 149.403 172.449 137.756C180.025 126.108 190.441 116.922 203.699 110.199C217.051 103.475 232.25 100.114 249.295 100.114C266.152 100.114 281.208 103.475 294.466 110.199C307.723 116.922 318.14 126.108 325.716 137.756C333.386 149.403 337.269 162.614 337.364 177.386C337.269 192.822 333.055 206.6 324.722 218.722C316.483 230.748 305.545 238.561 291.909 242.159V243.864C302.42 245.758 311.89 250.256 320.318 257.358C328.746 264.366 335.47 273.125 340.489 283.636C345.508 294.053 348.064 305.417 348.159 317.727C348.064 333.447 343.803 347.462 335.375 359.773C327.042 371.989 315.441 381.6 300.574 388.608C285.801 395.521 268.708 398.977 249.295 398.977ZM249.295 367.727C262.458 367.727 273.822 365.597 283.386 361.335C292.951 357.074 300.337 351.061 305.545 343.295C310.754 335.53 313.405 326.439 313.5 316.023C313.405 305.038 310.564 295.331 304.977 286.903C299.39 278.475 291.767 271.847 282.108 267.017C272.544 262.187 261.606 259.773 249.295 259.773C236.89 259.773 225.811 262.187 216.057 267.017C206.398 271.847 198.775 278.475 193.188 286.903C187.695 295.331 184.996 305.038 185.091 316.023C184.996 326.439 187.506 335.53 192.619 343.295C197.828 351.061 205.261 357.074 214.92 361.335C224.58 365.597 236.038 367.727 249.295 367.727ZM249.295 229.659C259.712 229.659 268.945 227.576 276.994 223.409C285.138 219.242 291.53 213.419 296.17 205.938C300.811 198.456 303.178 189.697 303.273 179.659C303.178 169.811 300.858 161.241 296.312 153.949C291.767 146.562 285.47 140.881 277.42 136.903C269.371 132.831 259.996 130.795 249.295 130.795C238.405 130.795 228.888 132.831 220.744 136.903C212.6 140.881 206.303 146.562 201.852 153.949C197.402 161.241 195.223 169.811 195.318 179.659C195.223 189.697 197.449 198.456 201.994 205.938C206.634 213.419 213.027 219.242 221.17 223.409C229.314 227.576 238.689 229.659 249.295 229.659Z" fill="white"/>
</g>
<defs>
<clipPath id="clip0_1_2">
<rect width="500" height="500" fill="white"/>
</clipPath>
</defs>
</svg>
